<?xml version="1.0" encoding="utf-8"?>
<!-- Generator: Adobe Illustrator 23.0.1, SVG Export Plug-In . SVG Version: 6.00 Build 0)  -->
<svg version="1.1" id="Layer_1" xmlns="http://www.w3.org/2000/svg" xmlns:xlink="http://www.w3.org/1999/xlink" x="0px" y="0px"
	 viewBox="0 0 1000 1000" style="enable-background:new 0 0 1000 1000;" xml:space="preserve">
<style type="text/css">
	.st0{fill-rule:evenodd;clip-rule:evenodd;fill:#B8BABC;}
	.st1{fill:#B8BABC;}
	.st2{fill:#27AAE1;}
	.st3{fill:#111011;}
	.st4{fill-rule:evenodd;clip-rule:evenodd;fill:#27AAE1;}
	.st5{fill-rule:evenodd;clip-rule:evenodd;fill:#111011;}
	.st6{fill-rule:evenodd;clip-rule:evenodd;fill:#020202;}
	.st7{fill:#020202;}
	.st8{fill:#FFFFFF;}
	.st9{fill-rule:evenodd;clip-rule:evenodd;fill:#191717;}
	.st10{fill:#191717;}
	.st11{fill-rule:evenodd;clip-rule:evenodd;fill:#FFFFFF;}
</style>
<circle class="st1" cx="500" cy="500" r="377.3"/>
<g>
	<g>
		<path class="st8" d="M349.7,490.5h-41.2c-1.1,0-1.9,0.9-1.9,1.9v20.1c0,1.1,0.9,1.9,1.9,1.9h16v25c-4.4,1-9,1.5-13.6,1.2
			c-11.8,0-28.2-4.3-28.2-40.4s17.1-40.9,33.1-40.9c8-0.3,16.1,1,23.7,3.6c1.1,0.2,2.1-0.5,2.3-1.5c0-0.1,0-0.2,0-0.4l4.6-19.4
			c0-0.6-0.2-1.2-0.7-1.5c-1.5-1.1-11-6.4-34.8-6.4c-27.5,0-55.6,11.7-55.6,67.8s32.3,64.5,59.4,64.5c22.5,0,36.2-9.6,36.2-9.6
			c0.5-0.3,0.7-0.9,0.6-1.5v-62.7C351.5,491.4,350.7,490.5,349.7,490.5z"/>
		<path class="st8" d="M561.7,440.5c0-1.1-0.9-1.9-1.9-1.9l0,0h-23.2c-1.1,0-1.9,0.9-1.9,1.9l0,0v44.8h-36.1v-44.8
			c0-1.1-0.9-1.9-1.9-1.9l0,0h-23.1c-1.1,0-1.9,0.9-1.9,1.9l0,0v121.2c0,1.1,0.9,1.9,1.9,1.9h23.2c1.1,0,1.9-0.9,1.9-1.9v-51.8h36.2
			v51.8c0,1.1,0.9,1.9,1.9,1.9h23.2c1.1,0,1.9-0.9,1.9-1.9L561.7,440.5z"/>
		<path class="st8" d="M393.4,456.4c-0.1-8.2-6.8-14.9-15.1-14.8s-14.9,6.8-14.8,15.1c0.1,8.2,6.7,14.8,14.9,14.8
			C386.7,471.5,393.4,464.7,393.4,456.4C393.4,456.4,393.4,456.4,393.4,456.4z"/>
		<path class="st8" d="M391.7,536.2v-55.9c0-1.1-0.9-1.9-1.9-1.9l0,0h-23.1c-1.1,0.1-2,1-2,2.2v80.1c0,2.4,1.5,3.1,3.4,3.1h20.8
			c2.3,0,2.8-1.1,2.8-3.1V536.2z"/>
		<path class="st8" d="M649.7,478.5h-23c-1.1,0-1.9,0.9-1.9,1.9l0,0v59.5c-4.2,2.8-9.1,4.2-14.1,4.3c-8.3,0-10.5-3.8-10.5-11.9
			v-51.9c0-1.1-0.9-1.9-1.9-1.9l0,0h-23.3c-1.1,0-1.9,0.9-1.9,1.9l0,0v55.7c0,24.1,13.3,30,31.9,30c9.7-0.3,19.2-3.2,27.4-8.4
			c0.2,1.7,0.5,3.3,0.9,4.9c0.3,0.6,1,1,1.7,1.1h14.9c1.1,0,1.9-0.9,1.9-1.9v-81.4C651.7,479.3,650.8,478.5,649.7,478.5
			C649.7,478.5,649.7,478.5,649.7,478.5z"/>
		<path class="st8" d="M712.5,475.7c-7.7,0-15.3,2-21.9,5.8v-41.1c0-1.1-0.9-1.9-1.9-1.9l0,0h-23.2c-1.1,0-1.9,0.9-1.9,1.9l0,0
			v121.2c0,1.1,0.9,1.9,1.9,1.9h16c0.7,0,1.4-0.4,1.7-1c0.5-1.8,0.8-3.7,1-5.6c0,0,9.5,9,27.5,9c21.1,0,33.2-10.6,33.2-48.1
			C744.8,480.6,725.6,475.7,712.5,475.7z M703.4,544c-4.7-0.1-9.3-1.5-13.3-3.9v-38.4c3.6-2.1,7.7-3.4,11.9-3.9
			c8.3-0.7,16.3,1.8,16.3,21.5C718.2,540.3,714.6,544.4,703.4,544z"/>
		<path class="st8" d="M458.3,478.3h-17.4v-22.9c0-0.9-0.5-1.3-1.4-1.3h-23.7c-0.9,0-1.4,0.4-1.4,1.3V479c0,0-11.9,2.8-12.7,3.1
			c-0.8,0.2-1.4,1-1.4,1.8v14.9c0,1.1,0.9,1.9,1.9,1.9h12.1v35.9c0,26.6,18.6,29.3,31.3,29.3c4.7-0.1,9.3-0.9,13.8-2.3
			c0.7-0.3,1.1-1,1.1-1.7v-16.5c0-1.1-0.9-1.9-1.9-1.9c-1,0-3.6,0.4-6.3,0.4c-8.5,0-11.4-4-11.4-9.1v-34.1h17.4
			c1.1,0,1.9-0.9,1.9-1.9v-18.6C460.2,479.2,459.4,478.3,458.3,478.3C458.3,478.3,458.3,478.3,458.3,478.3z"/>
	</g>
</g>
</svg>
